<svg xmlns="http://www.w3.org/2000/svg" viewBox="0 0 128 128">
  <defs>
    <linearGradient id="bgGrad" x1="0%" y1="0%" x2="100%" y2="100%">
      <stop offset="0%" stop-color="#3C1B7A"/>
      <stop offset="100%" stop-color="#160B2E"/>
    </linearGradient>
    <filter id="glow" x="-20%" y="-20%" width="140%" height="140%">
      <feGaussianBlur stdDeviation="3" result="blur" />
      <feComposite in="SourceGraphic" in2="blur" operator="over" />
    </filter>
  </defs>
  <!-- Background Circle -->
  <circle cx="64" cy="64" r="60" fill="url(#bgGrad)" stroke="#2FC18C" stroke-width="6"/>
  <!-- Central Question Mark -->
  <path d="M59.5 86.5 h9 v9 h-9 z M51 45 C51.5 35 55.5 28 64 28 C73 28 79 33.5 79 41.5 C79 47 75.5 51.5 71 55 L67 58.5 C65 60.5 64 63 64 66 L64 73 H55 L55 65 C55 60.5 57 57 61 53.5 L64.5 50.5 C67 48.5 68.5 46 68.5 42 C68.5 38 65.5 35.5 62 35.5 C57.5 35.5 55 38.5 54.5 43.5 Z" fill="#2FC18C" filter="url(#glow)"/>
  <!-- Decorative Dots -->
  <circle cx="34" cy="42" r="4.5" fill="#EA5D5D"/>
  <circle cx="94" cy="42" r="4.5" fill="#F9BA18"/>
  <circle cx="64" cy="108" r="3.5" fill="#00D5E2"/>
</svg>
